# xmcd CD database file
#
# Track frame offsets:
#	150
#	8895
#	19193
#	31462
#	49677
#	65894
#	77032
#	89087
#	102362
#	111392
#	120527
#	135426
#
# Disc length: 1940 seconds
#
# Revision: 0
# Processed by: cddbd v1.5.2PL0 Copyright (c) Steve Scherf et al.
# Submitted via: CDex 1.77
#
DISCID=a207920c
DTITLE=Miss Amber and Stukelele - Miss Amber and Stukelele
DYEAR=2014
DGENRE=Ukulele
TTITLE0=Compromise Eyes
TTITLE1=Paris Unicorn
TTITLE2=The Fish Song
TTITLE3=Too Soon
TTITLE4=Time After Time
TTITLE5=Battleship
TTITLE6=Tightrope
TTITLE7=Kissin' In The Dark
TTITLE8=Paper Moon
TTITLE9=A Wu Knees Up
TTITLE10=Someone Special
TTITLE11=Paris Unicorn (Rosie's Version)
EXTD=YEAR: 2014
EXTT0=
EXTT1=
EXTT2=
EXTT3=
EXTT4=
EXTT5=
EXTT6=
EXTT7=
EXTT8=
EXTT9=
EXTT10=
EXTT11=
PLAYORDER=
